<?xml version="1.0" standalone="no"?>
<!DOCTYPE svg PUBLIC "-//W3C//DTD SVG 1.1//EN" "http://www.w3.org/Graphics/SVG/1.1/DTD/svg11.dtd" >
<svg xmlns="http://www.w3.org/2000/svg">
<metadata>
Created by FontPrep 20130207 at Wed Apr  5 20:08:07 2017
 By Andrey Drachev
Copyright  2010 by Ryoichi Tsunekawa. All rights reserved.
</metadata>
<defs>
<font id="58f27deb2399af8565c14afe8476e0de" horiz-adv-x='1024' >
  <font-face 
    font-family="BebasNeueBook"
    font-weight="400"
    font-stretch="normal"
    units-per-em="2048"
    panose-1="0 0 5 0 0 0 0 0 0 0"
    ascent="1536"
    descent="-512"
    x-height="1434"
    cap-height="1434"
    bbox="0 -308.033 1464 1802"
    underline-thickness="102"
    underline-position="-123"
    unicode-range="U+000D-25FC"
  />
<missing-glyph horiz-adv-x="748" 
d="M136 68h408v1229h-408v-1229zM68 0v1365h544v-1365h-544z" />
    <glyph glyph-name=".notdef" horiz-adv-x="748" 
d="M136 68h408v1229h-408v-1229zM68 0v1365h544v-1365h-544z" />
    <glyph glyph-name="glyph1" horiz-adv-x="2048" 
 />
    <glyph glyph-name="glyph1" horiz-adv-x="2048" 
 />
    <glyph glyph-name="uni000D" unicode="&#xd;" horiz-adv-x="2048" 
 />
    <glyph glyph-name="space" unicode=" " horiz-adv-x="317" 
 />
    <glyph glyph-name="exclam" unicode="!" horiz-adv-x="258" 
d="M84 0v178h90v-178h-90zM82 1436h94v-750l-12 -369h-70l-12 369v750z" />
    <glyph glyph-name="quotedbl" unicode="&#x22;" horiz-adv-x="421" 
d="M248 1436h92l-12 -357h-68zM82 1436h92l-12 -357h-70z" />
    <glyph glyph-name="numbersign" unicode="#" horiz-adv-x="847" 
d="M285 524h239l49 465h-241zM63 455l7 69h135l49 465h-137l6 70h137l39 377h80l-39 -377h240l38 377h80l-39 -377h125l-6 -70h-125l-49 -465h125l-6 -69h-125l-49 -455h-80l49 455h-242l-47 -455h-79l49 455h-136z" />
    <glyph glyph-name="dollar" unicode="$" horiz-adv-x="772" 
d="M604 1085q0 267 -162 267t-213 -71.5t-51 -167.5t28.5 -154.5t74.5 -100.5t149 -115t184.5 -154.5t81.5 -234.5t-66 -249t-202 -107v-115h-80v115q-138 10 -204 105t-66 249v80h90v-84q0 -266 217 -266t217 266q0 134 -74.5 201t-176 138t-184.5 154t-83 239t65 249.5
t199 106.5v123h80v-123q92 -8 179 -78.5t87 -276.5v-32h-90v36z" />
    <glyph glyph-name="percent" unicode="%" horiz-adv-x="1239" 
d="M969 831q-129 0 -129 -167v-439q0 -75 31 -122.5t98 -47.5q129 0 129 170v439q0 167 -129 167zM774 229v430q0 104 48 169t147 65t145.5 -64.5t46.5 -169.5v-430q0 -105 -46.5 -169t-145.5 -64t-147 64.5t-48 168.5zM303 0l565 1436h62l-565 -1436h-62zM399 1208
q0 170 -129 170t-129 -170v-442q0 -168 129 -168q67 0 98 47t31 121v442zM78 770v436q0 104 47 168t145 64t146.5 -64t48.5 -168v-436q0 -104 -48.5 -167.5t-146.5 -63.5t-145 63.5t-47 167.5z" />
    <glyph glyph-name="ampersand" unicode="&#x26;" horiz-adv-x="825" 
d="M176 326q0 -117 53 -184.5t151 -67.5t155.5 53.5t58.5 146.5v431h-209q-100 -6 -154.5 -72.5t-54.5 -175.5v-131zM82 319v136q0 106 47.5 186t140.5 111q-93 27 -140.5 104.5t-47.5 185.5v35q0 174 86.5 265.5t257.5 91.5h203v-86h-203q-250 0 -250 -267v-57
q0 -99 52.5 -164t144.5 -69h221v159h94v-159h78v-86h-78v-517q0 -127 37 -188h-98q-31 55 -31 137q-65 -149 -242 -149q-136 0 -204 88.5t-68 242.5z" />
    <glyph glyph-name="quotesingle" unicode="'" horiz-adv-x="249" 
d="M80 1436h90l-10 -357h-70z" />
    <glyph glyph-name="parenleft" unicode="(" horiz-adv-x="473" 
d="M88 317v801q0 160 62 239t215 79h45v-80h-41q-106 0 -146.5 -60t-40.5 -178v-801q0 -120 40 -178.5t147 -58.5h41v-80h-45q-154 0 -215.5 78.5t-61.5 238.5z" />
    <glyph glyph-name="parenright" unicode=")" horiz-adv-x="473" 
d="M63 0v80h41q108 0 148.5 59t40.5 178v801q0 118 -41.5 178t-147.5 60h-41v80h46q153 0 215.5 -79.5t62.5 -238.5v-801q0 -160 -62 -238.5t-216 -78.5h-46z" />
    <glyph glyph-name="asterisk" unicode="*" horiz-adv-x="806" 
d="M68 1143l24 76l291 -109l-21 313h80l-18 -313l291 104l24 -75l-303 -68l195 -242l-64 -47l-164 265l-163 -263l-66 45l197 242z" />
    <glyph glyph-name="plus" unicode="+" horiz-adv-x="794" 
d="M72 682v70h290v295h70v-295h293v-70h-293v-299h-70v299h-290z" />
    <glyph glyph-name="comma" unicode="," horiz-adv-x="274" 
d="M102 0v180h91v-172l-60 -164h-41l41 156h-31z" />
    <glyph glyph-name="hyphen" unicode="-" horiz-adv-x="532" 
d="M78 674v86h377v-86h-377z" />
    <glyph glyph-name="period" unicode="." horiz-adv-x="256" 
d="M82 0v180h92v-180h-92z" />
    <glyph glyph-name="slash" unicode="/" horiz-adv-x="759" 
d="M55 0l566 1434h84l-566 -1434h-84z" />
    <glyph glyph-name="zero" unicode="0" horiz-adv-x="780" 
d="M170 346q0 -126 54 -199t167 -73t167 73t54 199v744q0 124 -54 197t-167 73t-167 -73t-54 -197v-744zM76 350v733q0 166 78.5 264.5t236.5 98.5t237 -98.5t79 -264.5v-733q0 -165 -79 -263.5t-237 -98.5t-236.5 98.5t-78.5 263.5z" />
    <glyph glyph-name="one" unicode="1" horiz-adv-x="575" 
d="M449 1436v-1436h-95v1274q-82 -109 -223 -121v82q99 7 156 60t88 141h74z" />
    <glyph glyph-name="two" unicode="2" horiz-adv-x="772" 
d="M82 0v70q0 199 85.5 325.5t187 232.5t176.5 202t75 247q0 283 -219 283q-112 0 -163.5 -76t-51.5 -201v-98h-90v92q0 166 76 267.5t234 101.5t233 -99t75 -264t-74.5 -266t-181.5 -218t-186.5 -224.5t-81.5 -272.5v-16h512v-86h-606z" />
    <glyph glyph-name="three" unicode="3" horiz-adv-x="774" 
d="M385 1360q-217 0 -217 -270v-58h-90v51q0 166 76 264.5t233 98.5t233 -98.5t76 -264.5v-34q0 -107 -49.5 -186t-140.5 -111q94 -28 142 -105t48 -186v-111q0 -166 -76 -264t-233 -98t-233 98t-76 264v82h90v-86q0 -125 52 -198.5t165 -73.5q217 0 217 278v111
q0 113 -54.5 175.5t-158.5 66.5h-96v86h100q96 6 152.5 71t56.5 168v51q0 279 -217 279z" />
    <glyph glyph-name="four" unicode="4" horiz-adv-x="825" 
d="M553 403v857l-403 -857h403zM63 317v89l476 1030h106v-1033h121v-86h-121v-317h-92v317h-490z" />
    <glyph glyph-name="five" unicode="5" horiz-adv-x="774" 
d="M385 858q-160 0 -205 -164v-24h-88l37 766h539v-88h-453l-27 -512q70 110 222 110t220 -95.5t68 -254.5v-246q0 -164 -77 -263t-233 -99t-233 99t-77 263v78h90v-82q0 -123 53 -196.5t165 -73.5t165 73.5t53 196.5v242q0 123 -53 196.5t-166 73.5z" />
    <glyph glyph-name="six" unicode="6" horiz-adv-x="782" 
d="M170 346q0 -125 54 -197.5t168 -72.5t168 72.5t54 197.5v174q0 123 -54 195.5t-168 72.5t-168 -72.5t-54 -195.5v-174zM395 1360q-225 0 -225 -283v-332q78 132 256 132q144 0 213.5 -95.5t69.5 -255.5v-176q0 -165 -79.5 -263.5t-237.5 -98.5t-237 98.5t-79 263.5v729
q0 170 78 268.5t238 98.5t235 -95.5t75 -260.5v-17h-90v23q0 264 -217 264z" />
    <glyph glyph-name="seven" unicode="7" horiz-adv-x="774" 
d="M76 1348v88h622v-86l-403 -1350h-96l403 1348h-526z" />
    <glyph glyph-name="eight" unicode="8" horiz-adv-x="794" 
d="M166 1036q0 -245 232 -245t231 245v60q0 127 -59.5 195.5t-173.5 68.5t-172 -68t-58 -196v-60zM166 344q0 -128 58.5 -199t172.5 -71t172 71t60 199v109q0 252 -232 252q-118 0 -174.5 -62.5t-56.5 -189.5v-109zM723 1053q0 -248 -191 -301q191 -56 191 -308v-102
q0 -163 -83.5 -258.5t-243.5 -95.5t-242 95t-82 259v102q0 250 192 308q-192 54 -192 301v45q0 163 83 255.5t241 92.5t242.5 -92.5t84.5 -255.5v-45z" />
    <glyph glyph-name="nine" unicode="9" horiz-adv-x="782" 
d="M168 915q0 -124 54 -197t167 -73t167 73t54 197v175q0 124 -54 197t-167 73t-167 -73t-54 -197v-175zM356 559q-144 0 -213 94.5t-69 255.5v174q0 166 79 265.5t237 99.5t236.5 -99t78.5 -266v-729q0 -168 -78 -267t-237 -99t-236.5 96.5t-77.5 261.5v19h90v-23
q0 -124 54 -196t167 -72q223 0 223 284v353q-63 -152 -254 -152z" />
    <glyph glyph-name="colon" unicode=":" horiz-adv-x="256" 
d="M82 780v181h92v-181h-92zM82 0v180h92v-180h-92z" />
    <glyph glyph-name="semicolon" unicode=";" horiz-adv-x="274" 
d="M102 780v181h91v-181h-91zM102 0v180h91v-172l-60 -164h-41l41 156h-31z" />
    <glyph glyph-name="less" unicode="&#x3c;" horiz-adv-x="757" 
d="M74 682v70l602 274v-74l-510 -235l510 -236v-73z" />
    <glyph glyph-name="equal" unicode="=" horiz-adv-x="624" 
d="M78 836v69h469v-69h-469zM78 586v69h469v-69h-469z" />
    <glyph glyph-name="greater" unicode="&#x3e;" horiz-adv-x="757" 
d="M82 408v73l512 236l-512 235v74l602 -274v-70z" />
    <glyph glyph-name="question" unicode="?" horiz-adv-x="743" 
d="M299 0v178h90v-178h-90zM373 1446q305 0 305 -370q0 -157 -75 -254t-149.5 -191t-74.5 -236q0 -34 10 -76h-86q-10 43 -10 93t16 106.5t41.5 99.5t56.5 84.5t62.5 82.5t73 111t41.5 189q0 275 -213 275t-213 -277v-100h-90v94q0 167 74 268t231 101z" />
    <glyph glyph-name="at" unicode="@" horiz-adv-x="1409" 
d="M736 1008q-88 0 -137 -60.5t-60 -161.5l-19 -192q-12 -89 21 -160.5t125 -71.5t140 64.5t58 167.5l23 199q10 94 -26.5 154.5t-124.5 60.5zM796 1495q289 0 418 -158t129 -422q0 -348 -121 -484.5t-229 -137.5q-67 0 -102.5 38.5t-38.5 104.5q-66 -158 -221 -155
q-79 1 -146.5 63t-48.5 250l21 203q14 135 78.5 215.5t179.5 79.5q148 -3 186 -146l14 135h84l-61 -585q-5 -50 13.5 -86t70.5 -36t115 53t99 201.5t34 284.5q0 241 -117 373.5t-358 132.5q-381 0 -512 -276t-131 -565q0 -288 138 -443t421 -155q229 0 383 118l-7 -86
q-158 -108 -380 -108q-322 0 -479.5 178t-157.5 492t115 547t290 303.5t321 70.5z" />
    <glyph glyph-name="A" unicode="A" horiz-adv-x="892" 
d="M233 399h418l-211 928zM61 0l314 1436h137l319 -1436h-94l-71 317h-447l-72 -317h-86z" />
    <glyph glyph-name="B" unicode="B" horiz-adv-x="774" 
d="M176 801h160q132 0 189 48t57 179v92q0 118 -45 173t-156 55h-205v-547zM176 86h213q115 0 167 62t52 186v129q0 136 -61.5 194t-192.5 58h-178v-629zM82 0v1434h301q157 0 225 -76t68 -230v-81q0 -123 -42.5 -192t-146.5 -91q215 -43 215 -307v-125q0 -332 -313 -332
h-307z" />
    <glyph glyph-name="C" unicode="C" horiz-adv-x="765" 
d="M387 76q217 0 217 268v170h90v-164q0 -165 -76 -263.5t-233 -98.5t-233 98.5t-76 263.5v733q0 165 76 264t233 99t233 -99t76 -264v-118h-90v125q0 124 -52 197t-165 73t-165 -73t-52 -197v-746q0 -268 217 -268z" />
    <glyph glyph-name="D" unicode="D" horiz-adv-x="788" 
d="M176 86h219q115 0 170.5 71t55.5 195v729q0 124 -56 195.5t-170 71.5h-219v-1262zM82 0v1434h315q160 0 239 -96t79 -261v-721q0 -165 -79 -260.5t-239 -95.5h-315z" />
    <glyph glyph-name="E" unicode="E" horiz-adv-x="718" 
d="M82 0v1434h565v-86h-471v-578h391v-86h-391v-598h471v-86h-565z" />
    <glyph glyph-name="F" unicode="F" horiz-adv-x="688" 
d="M82 0v1434h545v-86h-451v-613h371v-86h-371v-649h-94z" />
    <glyph glyph-name="G" unicode="G" horiz-adv-x="770" 
d="M387 76q217 0 217 268v309h-190v86h280v-389q0 -165 -76 -263.5t-233 -98.5t-233 98.5t-76 263.5v733q0 165 76 264t233 99t233 -99t76 -264v-106h-90v113q0 124 -52 197t-165 73t-165 -73t-52 -197v-746q0 -268 217 -268z" />
    <glyph glyph-name="H" unicode="H" 
d="M82 0v1434h94v-674h447v674h96v-1434h-96v674h-447v-674h-94z" />
    <glyph glyph-name="I" unicode="I" horiz-adv-x="258" 
d="M82 0v1434h94v-1434h-94z" />
    <glyph glyph-name="J" unicode="J" horiz-adv-x="518" 
d="M88 85q150 0 204 66t54 195v1088h94v-1082q0 -181 -77.5 -267.5t-178 -86.5t-125.5 2v86q10 -1 29 -1z" />
    <glyph glyph-name="K" unicode="K" horiz-adv-x="827" 
d="M82 0v1434h94v-758l467 758h98l-409 -668l436 -766h-98l-396 674l-98 -156v-518h-94z" />
    <glyph glyph-name="L" unicode="L" horiz-adv-x="686" 
d="M82 0v1434h94v-1348h451v-86h-545z" />
    <glyph glyph-name="M" unicode="M" horiz-adv-x="1034" 
d="M82 0v1434h135l301 -1268l299 1268h135v-1434h-90v1274l-299 -1272h-94l-303 1268v-1270h-84z" />
    <glyph glyph-name="N" unicode="N" 
d="M82 0v1434h123l430 -1211v1211h86v-1434h-105l-448 1278v-1278h-86z" />
    <glyph glyph-name="O" unicode="O" horiz-adv-x="780" 
d="M170 344q0 -125 53 -197.5t167 -72.5t168 73t54 197v746q0 124 -54 197t-168 73t-167 -72.5t-53 -197.5v-746zM76 350v733q0 165 78 264t236 99t237.5 -99t79.5 -264v-733q0 -165 -79.5 -263.5t-237.5 -98.5t-236 98.5t-78 263.5z" />
    <glyph glyph-name="P" unicode="P" horiz-adv-x="749" 
d="M176 676h178q125 0 181.5 59t56.5 189v168q0 124 -49 190t-164 66h-203v-672zM379 1434q307 0 307 -349v-155q0 -171 -81.5 -255.5t-250.5 -84.5h-178v-590h-94v1434h297z" />
    <glyph glyph-name="Q" unicode="Q" horiz-adv-x="835" 
d="M170 344q0 -124 54 -197t167 -73t167 73t54 197v746q0 124 -54 197t-167 73t-167 -73t-54 -197v-746zM76 350v733q0 165 78.5 264t236.5 99t237 -99t79 -264v-733q0 -157 -68 -248q33 -57 113 -57h22v-84h-24q-118 0 -170 84q-77 -57 -189 -57q-158 0 -236.5 98.5
t-78.5 263.5z" />
    <glyph glyph-name="R" unicode="R" horiz-adv-x="790" 
d="M176 727h152q136 0 201 51.5t65 188.5v135q0 120 -51 183t-164 63h-203v-621zM82 0v1434h299q307 0 307 -324v-125q0 -249 -207 -297q207 -46 207 -293v-223q0 -119 35 -172h-98q-31 53 -31 172v225q0 135 -68 189.5t-200 54.5h-150v-641h-94z" />
    <glyph glyph-name="S" unicode="S" horiz-adv-x="757" 
d="M332 1360q-162 0 -162 -264q0 -135 74.5 -205.5t177.5 -146.5t184.5 -159t81.5 -243t-76 -257t-233 -97t-233 97t-76 261v74h90v-80q0 -264 217 -264t217 264q0 134 -74.5 203.5t-177.5 145.5t-184.5 160t-81.5 246t75.5 256t229.5 95q105 0 205 -68t100 -291v-30h-90v37
q0 122 -51 194t-213 72z" />
    <glyph glyph-name="T" unicode="T" horiz-adv-x="755" 
d="M37 1348v86h678v-86h-291v-1348h-94v1348h-293z" />
    <glyph glyph-name="U" unicode="U" horiz-adv-x="770" 
d="M78 350v1084h94v-1088q0 -125 51.5 -198.5t163.5 -73.5t163.5 73.5t51.5 198.5v1088h88v-1084q0 -164 -74.5 -263t-230.5 -99t-231.5 99t-75.5 263z" />
    <glyph glyph-name="V" unicode="V" horiz-adv-x="888" 
d="M61 1434h97l291 -1325l290 1325h88l-311 -1434h-139z" />
    <glyph glyph-name="W" unicode="W" horiz-adv-x="1234" 
d="M63 1434h93l215 -1307l209 1300h100l201 -1296l206 1303h84l-229 -1434h-123l-192 1174l-201 -1174h-131z" />
    <glyph glyph-name="X" unicode="X" horiz-adv-x="901" 
d="M63 0l324 743l-301 691h98l271 -617l272 617h90l-301 -691l322 -743h-101l-291 668l-290 -668h-93z" />
    <glyph glyph-name="Y" unicode="Y" horiz-adv-x="849" 
d="M471 0h-94v551l-322 883h99l274 -754l274 754h93l-324 -883v-551z" />
    <glyph glyph-name="Z" unicode="Z" horiz-adv-x="794" 
d="M70 0v86l555 1262h-529v86h627v-88l-555 -1260h547v-86h-645z" />
    <glyph glyph-name="bracketleft" unicode="[" horiz-adv-x="475" 
d="M88 0v1436h320v-80h-226v-1276h226v-80h-320z" />
    <glyph glyph-name="backslash" unicode="\" horiz-adv-x="759" 
d="M55 1434h84l566 -1434h-84z" />
    <glyph glyph-name="bracketright" unicode="]" horiz-adv-x="475" 
d="M70 0v80h225v1276h-225v80h319v-1436h-319z" />
    <glyph glyph-name="asciicircum" unicode="^" horiz-adv-x="837" 
d="M68 801l315 633h72l315 -633h-80l-272 545l-271 -545h-79z" />
    <glyph glyph-name="underscore" unicode="_" horiz-adv-x="1050" 
d="M53 -20h932v-72h-932v72z" />
    <glyph glyph-name="grave" unicode="`" horiz-adv-x="403" 
d="M84 1737h102l146 -195h-74z" />
    <glyph glyph-name="a" unicode="a" horiz-adv-x="892" 
d="M233 399h418l-211 928zM61 0l314 1436h137l319 -1436h-94l-71 317h-447l-72 -317h-86z" />
    <glyph glyph-name="b" unicode="b" horiz-adv-x="774" 
d="M176 801h160q132 0 189 48t57 179v92q0 118 -45 173t-156 55h-205v-547zM176 86h213q115 0 167 62t52 186v129q0 136 -61.5 194t-192.5 58h-178v-629zM82 0v1434h301q157 0 225 -76t68 -230v-81q0 -123 -42.5 -192t-146.5 -91q215 -43 215 -307v-125q0 -332 -313 -332
h-307z" />
    <glyph glyph-name="c" unicode="c" horiz-adv-x="765" 
d="M387 76q217 0 217 268v170h90v-164q0 -165 -76 -263.5t-233 -98.5t-233 98.5t-76 263.5v733q0 165 76 264t233 99t233 -99t76 -264v-118h-90v125q0 124 -52 197t-165 73t-165 -73t-52 -197v-746q0 -268 217 -268z" />
    <glyph glyph-name="d" unicode="d" horiz-adv-x="788" 
d="M176 86h219q115 0 170.5 71t55.5 195v729q0 124 -56 195.5t-170 71.5h-219v-1262zM82 0v1434h315q160 0 239 -96t79 -261v-721q0 -165 -79 -260.5t-239 -95.5h-315z" />
    <glyph glyph-name="e" unicode="e" horiz-adv-x="718" 
d="M82 0v1434h565v-86h-471v-578h391v-86h-391v-598h471v-86h-565z" />
    <glyph glyph-name="f" unicode="f" horiz-adv-x="688" 
d="M82 0v1434h545v-86h-451v-613h371v-86h-371v-649h-94z" />
    <glyph glyph-name="g" unicode="g" horiz-adv-x="770" 
d="M387 76q217 0 217 268v309h-190v86h280v-389q0 -165 -76 -263.5t-233 -98.5t-233 98.5t-76 263.5v733q0 165 76 264t233 99t233 -99t76 -264v-106h-90v113q0 124 -52 197t-165 73t-165 -73t-52 -197v-746q0 -268 217 -268z" />
    <glyph glyph-name="h" unicode="h" 
d="M82 0v1434h94v-674h447v674h96v-1434h-96v674h-447v-674h-94z" />
    <glyph glyph-name="i" unicode="i" horiz-adv-x="258" 
d="M82 0v1434h94v-1434h-94z" />
    <glyph glyph-name="j" unicode="j" horiz-adv-x="518" 
d="M88 85q150 0 204 66t54 195v1088h94v-1082q0 -181 -77.5 -267.5t-178 -86.5t-125.5 2v86q10 -1 29 -1z" />
    <glyph glyph-name="k" unicode="k" horiz-adv-x="827" 
d="M82 0v1434h94v-758l467 758h98l-409 -668l436 -766h-98l-396 674l-98 -156v-518h-94z" />
    <glyph glyph-name="l" unicode="l" horiz-adv-x="686" 
d="M82 0v1434h94v-1348h451v-86h-545z" />
    <glyph glyph-name="m" unicode="m" horiz-adv-x="1034" 
d="M82 0v1434h135l301 -1268l299 1268h135v-1434h-90v1274l-299 -1272h-94l-303 1268v-1270h-84z" />
    <glyph glyph-name="n" unicode="n" 
d="M82 0v1434h123l430 -1211v1211h86v-1434h-105l-448 1278v-1278h-86z" />
    <glyph glyph-name="o" unicode="o" horiz-adv-x="780" 
d="M170 344q0 -125 53 -197.5t167 -72.5t168 73t54 197v746q0 124 -54 197t-168 73t-167 -72.5t-53 -197.5v-746zM76 350v733q0 165 78 264t236 99t237.5 -99t79.5 -264v-733q0 -165 -79.5 -263.5t-237.5 -98.5t-236 98.5t-78 263.5z" />
    <glyph glyph-name="p" unicode="p" horiz-adv-x="745" 
d="M176 676h178q125 0 181.5 59t56.5 189v168q0 124 -49 190t-164 66h-203v-672zM379 1434q307 0 307 -349v-155q0 -171 -81.5 -255.5t-250.5 -84.5h-178v-590h-94v1434h297z" />
    <glyph glyph-name="q" unicode="q" horiz-adv-x="796" 
d="M170 344q0 -124 54 -197t167 -73t167 73t54 197v746q0 124 -54 197t-167 73t-167 -73t-54 -197v-746zM76 350v733q0 165 78.5 264t236.5 99t237 -99t79 -264v-733q0 -157 -68 -248q33 -57 113 -57h22v-84h-24q-118 0 -170 84q-77 -57 -189 -57q-158 0 -236.5 98.5
t-78.5 263.5z" />
    <glyph glyph-name="r" unicode="r" horiz-adv-x="790" 
d="M176 727h152q136 0 201 51.5t65 188.5v135q0 120 -51 183t-164 63h-203v-621zM82 0v1434h299q307 0 307 -324v-125q0 -249 -207 -297q207 -46 207 -293v-223q0 -119 35 -172h-98q-31 53 -31 172v225q0 135 -68 189.5t-200 54.5h-150v-641h-94z" />
    <glyph glyph-name="s" unicode="s" horiz-adv-x="757" 
d="M332 1360q-162 0 -162 -264q0 -135 74.5 -205.5t177.5 -146.5t184.5 -159t81.5 -243t-76 -257t-233 -97t-233 97t-76 261v74h90v-80q0 -264 217 -264t217 264q0 134 -74.5 203.5t-177.5 145.5t-184.5 160t-81.5 246t75.5 256t229.5 95q105 0 205 -68t100 -291v-30h-90v37
q0 122 -51 194t-213 72z" />
    <glyph glyph-name="t" unicode="t" horiz-adv-x="745" 
d="M33 1348v86h678v-86h-293v-1348h-94v1348h-291z" />
    <glyph glyph-name="u" unicode="u" horiz-adv-x="770" 
d="M78 350v1084h94v-1088q0 -125 51.5 -198.5t163.5 -73.5t163.5 73.5t51.5 198.5v1088h88v-1084q0 -164 -74.5 -263t-230.5 -99t-231.5 99t-75.5 263z" />
    <glyph glyph-name="v" unicode="v" horiz-adv-x="888" 
d="M61 1434h97l291 -1325l290 1325h88l-311 -1434h-139z" />
    <glyph glyph-name="w" unicode="w" horiz-adv-x="1234" 
d="M63 1434h93l215 -1307l209 1300h100l201 -1296l206 1303h84l-229 -1434h-123l-192 1174l-201 -1174h-131z" />
    <glyph glyph-name="x" unicode="x" horiz-adv-x="901" 
d="M63 0l324 743l-301 691h98l271 -617l272 617h90l-301 -691l322 -743h-101l-291 668l-290 -668h-93z" />
    <glyph glyph-name="y" unicode="y" horiz-adv-x="849" 
d="M471 0h-94v551l-322 883h99l274 -754l274 754h93l-324 -883v-551z" />
    <glyph glyph-name="z" unicode="z" horiz-adv-x="794" 
d="M70 0v86l555 1262h-529v86h627v-88l-555 -1260h547v-86h-645z" />
    <glyph glyph-name="braceleft" unicode="{" horiz-adv-x="524" 
d="M385 1436h76v-80h-45q-69 0 -94.5 -41.5t-30.5 -128.5l-12 -258q-7 -133 -50 -166t-84 -45q77 -21 103.5 -72.5t30.5 -138.5l12 -256q5 -88 30 -129t95 -41h45v-80h-76q-90 0 -132 55.5t-48 157.5l-15 281q-3 91 -26.5 130t-102.5 50v86q79 13 102.5 51t26.5 129l15 283
q6 101 48 157t132 56z" />
    <glyph glyph-name="bar" unicode="|" horiz-adv-x="512" 
d="M221 -47v1530h78v-1530h-78z" />
    <glyph glyph-name="braceright" unicode="}" horiz-adv-x="524" 
d="M63 0v80h48q68 0 92.5 41t29.5 129l15 256q6 137 49 168.5t84 42.5q-109 32 -120 100.5t-13 110.5l-15 258q-5 87 -29.5 128.5t-92.5 41.5h-48v80h76q91 0 132 -55.5t48 -157.5l15 -283q5 -92 28 -129.5t103 -50.5v-86q-84 -12 -104.5 -51.5t-26.5 -128.5l-15 -281
q-6 -103 -47.5 -158t-132.5 -55h-76z" />
    <glyph glyph-name="asciitilde" unicode="~" horiz-adv-x="813" 
d="M252 741q-79 0 -146 -110l-49 43q88 141 197 141q51 2 110 -30.5t113.5 -64.5t94.5 -30t68 28.5t65 82.5l49 -47q-84 -135 -173 -139q-80 -3 -172.5 62.5t-156.5 63.5z" />
    <glyph glyph-name="uni00A0" unicode="&#xa0;" horiz-adv-x="317" 
 />
    <glyph glyph-name="cent" unicode="&#xa2;" horiz-adv-x="772" 
d="M389 172q217 0 217 266v113h90v-107q0 -155 -66 -250.5t-204 -105.5v-98h-80v98q-92 8 -179 80t-87 278v543q0 207 87 279t179 80v96h80v-96q139 -10 204.5 -103t65.5 -246v-65h-90v70q0 260 -217 260q-111 0 -163 -72.5t-52 -196.5v-553q0 -124 52 -197t163 -73z" />
    <glyph glyph-name="sterling" unicode="&#xa3;" horiz-adv-x="790" 
d="M74 0v84q99 76 159 182t43 226h-176v75h162q-19 64 -91.5 209t-72.5 308t74.5 262.5t231.5 99.5t230 -101.5t73 -267.5v-88h-89v92q0 170 -67 224.5t-143 54.5q-215 0 -215 -275q0 -161 69.5 -298.5t91.5 -219.5h301v-75h-293q11 -96 -25.5 -191t-143.5 -215h518v-86
h-637z" />
    <glyph glyph-name="yen" unicode="&#xa5;" horiz-adv-x="882" 
d="M711 561v-53h-224v-150h224v-53h-224v-305h-94v305h-221v53h221v150h-221v53h213l-328 873h101l286 -766l289 766h90l-329 -873h217z" />
    <glyph glyph-name="dieresis" unicode="&#xa8;" horiz-adv-x="389" 
d="M139 1526v174h111v-174h-111z" />
    <glyph glyph-name="copyright" unicode="&#xa9;" horiz-adv-x="1531" 
d="M541 518v395q0 115 53.5 183.5t162.5 68.5t161.5 -68.5t52.5 -183.5v-49h-66v54q0 184 -147 184q-76 0 -112 -50.5t-36 -133.5v-402q0 -83 36 -133.5t112 -50.5q147 0 147 184v76h66v-74q0 -114 -53.5 -183t-161.5 -69t-161.5 69t-53.5 183zM133 717q0 -184 80.5 -333
t226 -235t326.5 -86t326 86t225 235t80 333t-80 333t-225 234.5t-326 85.5t-326.5 -85.5t-226 -234.5t-80.5 -333zM68 717q0 203 89 366.5t249 257t334 93.5t304.5 -54.5t222 -149.5t144.5 -228t53 -285t-53 -285t-144.5 -228t-222 -149.5t-304.5 -54.5t-334 93.5t-249 257
t-89 366.5z" />
    <glyph glyph-name="guillemotleft" unicode="&#xab;" horiz-adv-x="583" 
d="M301 719l133 502h86l-133 -502l133 -512h-86zM63 719l136 502h86l-133 -502l133 -512h-86z" />
    <glyph glyph-name="uni00AD" unicode="&#xad;" horiz-adv-x="532" 
d="M78 674v86h377v-86h-377z" />
    <glyph glyph-name="registered" unicode="&#xae;" horiz-adv-x="1531" 
d="M633 725h117q88 0 129 37t41 127v31q0 85 -34.5 127.5t-115.5 42.5h-137v-365zM563 279v876h211q215 0 215 -227v-27q0 -167 -131 -207q131 -40 131 -202v-95q0 -84 25 -118h-72q-22 40 -22 120v95q0 94 -48 129.5t-141 35.5h-98v-380h-70zM133 717q0 -184 80.5 -333
t226 -235t326.5 -86t326 86t225 235t80 333t-80 333t-225 234.5t-326 85.5t-326.5 -85.5t-226 -234.5t-80.5 -333zM68 717q0 203 89 366.5t249 257t334 93.5t304.5 -54.5t222 -149.5t144.5 -228t53 -285t-53 -285t-144.5 -228t-222 -149.5t-304.5 -54.5t-334 93.5t-249 257
t-89 366.5z" />
    <glyph glyph-name="acute" unicode="&#xb4;" horiz-adv-x="403" 
d="M72 1542l147 195h96l-172 -195h-71z" />
    <glyph glyph-name="cedilla" unicode="&#xb8;" horiz-adv-x="505" 
d="M72 -174h67v-10q0 -40 34.5 -60t78.5 -21t78.5 20t34.5 63q0 78 -117 78h-15v114h48v-90q73 -2 113 -24.5t40 -84.5t-52 -91t-128 -28t-129 30.5t-53 91.5v12z" />
    <glyph glyph-name="guillemotright" unicode="&#xbb;" horiz-adv-x="583" 
d="M301 207l131 512l-131 502h86l133 -502l-133 -512h-86zM63 207l134 512l-134 502h87l135 -502l-135 -512h-87z" />
    <glyph glyph-name="circumflex" unicode="&#x2c6;" horiz-adv-x="512" 
d="M43 1552l172 185h82l172 -185h-88l-125 129l-125 -129h-88z" />
    <glyph glyph-name="ring" unicode="&#x2da;" horiz-adv-x="446" 
d="M135 1666q0 -38 25.5 -61.5t61.5 -23.5t62.5 24.5t26.5 60.5t-26.5 61.5t-62.5 25.5t-61.5 -24.5t-25.5 -62.5zM86 1666q0 58 40 97t97 39t97 -39t40 -97t-40 -97t-97 -39t-97 39t-40 97z" />
    <glyph glyph-name="tilde" unicode="&#x2dc;" horiz-adv-x="536" 
d="M45 1579q46 96 129 96q41 1 102 -33.5t89 -33.5q44 0 75 61l52 -33q-67 -152 -173.5 -90.5t-136.5 60.5q-54 0 -86 -62z" />
    <glyph glyph-name="afii10023" unicode="&#x401;" horiz-adv-x="718" 
d="M422 1526v174h84v-174h-84zM223 1526v174h84v-174h-84zM82 0v1434h565v-86h-471v-578h391v-86h-391v-598h471v-86h-565z" />
    <glyph glyph-name="afii10017" unicode="&#x410;" horiz-adv-x="892" 
d="M233 399h418l-211 928zM61 0l314 1436h137l319 -1436h-94l-71 317h-447l-72 -317h-86z" />
    <glyph glyph-name="afii10018" unicode="&#x411;" horiz-adv-x="792" 
d="M176 86h221q117 0 170.5 62.5t53.5 187.5v174q0 127 -57 176t-183 49h-205v-649zM82 0v1434h580v-86h-486v-525h205q169 0 251.5 -75.5t82.5 -243.5v-162q0 -342 -318 -342h-315z" />
    <glyph glyph-name="afii10019" unicode="&#x412;" horiz-adv-x="774" 
d="M176 801h160q132 0 189 48t57 179v92q0 118 -45 173t-156 55h-205v-547zM176 86h213q115 0 167 62t52 186v129q0 136 -61.5 194t-192.5 58h-178v-629zM82 0v1434h301q157 0 225 -76t68 -230v-81q0 -123 -42.5 -192t-146.5 -91q215 -43 215 -307v-125q0 -332 -313 -332
h-307z" />
    <glyph glyph-name="afii10020" unicode="&#x413;" horiz-adv-x="708" 
d="M82 0v1434h551v-86h-457v-1348h-94z" />
    <glyph glyph-name="afii10021" unicode="&#x414;" horiz-adv-x="1001" 
d="M719 86v1262h-340l-53 -1033q-5 -86 -18.5 -138t-49.5 -91h461zM63 86h99q39 40 53 94t18 135l58 1119h524v-1348h119v-285h-94v199h-684v-199h-93v285z" />
    <glyph glyph-name="afii10022" unicode="&#x415;" horiz-adv-x="718" 
d="M82 0v1434h565v-86h-471v-578h391v-86h-391v-598h471v-86h-565z" />
    <glyph glyph-name="afii10024" unicode="&#x416;" horiz-adv-x="1275" 
d="M590 1434h94v-738l420 738h98l-356 -627l371 -807h-97l-340 717l-96 -164v-553h-94v555l-94 162l-340 -717h-99l375 805l-358 629h96l420 -738v738z" />
    <glyph glyph-name="afii10025" unicode="&#x417;" horiz-adv-x="774" 
d="M78 350v119h90v-125q0 -124 52 -197t165 -73q217 0 217 278v111q0 110 -59 176t-162 66h-80v86h86q94 0 154.5 68t60.5 169v53q0 279 -217 279q-113 0 -166 -72.5t-53 -197.5v-78h-86v73q0 165 75 263t232 98t233 -98.5t76 -264.5v-36q0 -107 -50.5 -186t-143.5 -109
q95 -27 144.5 -105t49.5 -186v-111q0 -166 -76 -264t-233 -98t-233 98t-76 264z" />
    <glyph glyph-name="afii10026" unicode="&#x418;" 
d="M82 0v1434h86v-1227l440 1227h113v-1434h-86v1268l-215 -594l-236 -674h-102z" />
    <glyph glyph-name="afii10027" unicode="&#x419;" horiz-adv-x="802" 
d="M412 1591q60 0 100 28t43 85h63q-1 -81 -58.5 -127.5t-147.5 -46.5t-147 46.5t-58 127.5h65q1 -57 40.5 -85t99.5 -28zM82 0v1434h86v-1227l440 1227h113v-1434h-86v1268l-205 -570l-246 -698h-102z" />
    <glyph glyph-name="afii10028" unicode="&#x41a;" horiz-adv-x="827" 
d="M82 0v1434h94v-758l467 758h98l-409 -668l436 -766h-98l-396 674l-98 -156v-518h-94z" />
    <glyph glyph-name="afii10029" unicode="&#x41b;" horiz-adv-x="897" 
d="M59 -2v86q80 0 117.5 38.5t47.5 96t12 129.5l43 1086h534v-1434h-96v1348h-350l-37 -998q-10 -211 -72 -280.5t-180 -71.5h-19z" />
    <glyph glyph-name="afii10030" unicode="&#x41c;" horiz-adv-x="1034" 
d="M82 0v1434h135l301 -1268l299 1268h135v-1434h-90v1274l-299 -1272h-94l-303 1268v-1270h-84z" />
    <glyph glyph-name="afii10031" unicode="&#x41d;" 
d="M82 0v1434h94v-674h447v674h96v-1434h-96v674h-447v-674h-94z" />
    <glyph glyph-name="afii10032" unicode="&#x41e;" horiz-adv-x="780" 
d="M170 344q0 -125 53 -197.5t167 -72.5t168 73t54 197v746q0 124 -54 197t-168 73t-167 -72.5t-53 -197.5v-746zM76 350v733q0 165 78 264t236 99t237.5 -99t79.5 -264v-733q0 -165 -79.5 -263.5t-237.5 -98.5t-236 98.5t-78 263.5z" />
    <glyph glyph-name="afii10033" unicode="&#x41f;" 
d="M82 0v1434h637v-1434h-96v1348h-447v-1348h-94z" />
    <glyph glyph-name="afii10034" unicode="&#x420;" horiz-adv-x="745" 
d="M176 676h178q125 0 181.5 59t56.5 189v168q0 124 -49 190t-164 66h-203v-672zM379 1434q307 0 307 -349v-155q0 -171 -81.5 -255.5t-250.5 -84.5h-178v-590h-94v1434h297z" />
    <glyph glyph-name="afii10035" unicode="&#x421;" horiz-adv-x="765" 
d="M387 76q217 0 217 268v170h90v-164q0 -165 -76 -263.5t-233 -98.5t-233 98.5t-76 263.5v733q0 165 76 264t233 99t233 -99t76 -264v-118h-90v125q0 124 -52 197t-165 73t-165 -73t-52 -197v-746q0 -268 217 -268z" />
    <glyph glyph-name="afii10036" unicode="&#x422;" horiz-adv-x="794" 
d="M57 1348v86h680v-86h-293v-1348h-94v1348h-293z" />
    <glyph glyph-name="afii10037" unicode="&#x423;" horiz-adv-x="872" 
d="M57 1434h97l292 -889l115 385l156 504h98l-371 -1168q-36 -135 -100 -203.5t-215 -62.5v84q94 -1 139.5 38.5t73.5 129.5l59 174z" />
    <glyph glyph-name="afii10038" unicode="&#x424;" horiz-adv-x="1138" 
d="M614 240h117q124 0 181 68.5t57 201.5v403q0 134 -56.5 202.5t-181.5 68.5h-117v-944zM168 510q0 -134 56.5 -202t181.5 -68h116v944h-116q-125 0 -181.5 -68.5t-56.5 -202.5v-403zM76 516v391q0 176 79 268.5t251 92.5h116v166h92v-166h117q330 0 330 -361v-391
q0 -360 -330 -360h-117v-156h-92v156h-116q-172 0 -251 92t-79 268z" />
    <glyph glyph-name="afii10039" unicode="&#x425;" horiz-adv-x="901" 
d="M63 0l324 743l-301 691h98l271 -617l272 617h90l-301 -691l322 -743h-101l-291 668l-290 -668h-93z" />
    <glyph glyph-name="afii10040" unicode="&#x426;" horiz-adv-x="931" 
d="M109 0v1434h92v-1348h446v1348h96v-1348h119v-279h-92v193h-661z" />
    <glyph glyph-name="afii10041" unicode="&#x427;" horiz-adv-x="792" 
d="M76 897v537h94v-531q0 -118 55.5 -194t165.5 -76q177 0 225 186v615h95v-1434h-95v688q-81 -141 -251 -141q-98 0 -193.5 69t-95.5 281z" />
    <glyph glyph-name="afii10042" unicode="&#x428;" horiz-adv-x="1155" 
d="M82 0v1434h94v-1348h354v1348h95v-1348h354v1348h94v-1434h-991z" />
    <glyph glyph-name="afii10043" unicode="&#x429;" horiz-adv-x="1259" 
d="M82 0v1434h94v-1348h352v1348h95v-1348h356l-2 1348h94v-1348h121v-279h-92v193h-1018z" />
    <glyph glyph-name="afii10044" unicode="&#x42a;" horiz-adv-x="890" 
d="M309 86h203q115 0 164 66t49 190v168q0 130 -57 189t-181 59h-178v-672zM20 1348v86h289v-590h178q169 0 250.5 -84.5t81.5 -255.5v-156q0 -348 -307 -348h-297v1348h-195z" />
    <glyph glyph-name="afii10045" unicode="&#x42b;" horiz-adv-x="997" 
d="M821 0v1434h94v-1434h-94zM176 86h201q115 0 165 66t50 190v168q0 130 -57.5 189t-182.5 59h-176v-672zM82 0v1434h94v-590h176q171 0 252.5 -84.5t81.5 -255.5v-156q0 -348 -309 -348h-295z" />
    <glyph glyph-name="afii10046" unicode="&#x42c;" horiz-adv-x="757" 
d="M176 86h201q115 0 165 66t50 190v168q0 130 -57.5 189t-182.5 59h-176v-672zM82 0v1434h94v-590h176q171 0 252.5 -84.5t81.5 -255.5v-156q0 -348 -309 -348h-295z" />
    <glyph glyph-name="afii10047" unicode="&#x42d;" horiz-adv-x="765" 
d="M377 76q219 0 219 268v354h-293v86h293v306q0 124 -53 197t-165 73t-164 -73t-52 -197v-97h-88v90q0 165 75 264t231 99t233 -99.5t77 -263.5v-733q0 -164 -77 -263t-233 -99t-232 98.5t-76 263.5v139h90v-145q0 -123 52 -195.5t163 -72.5z" />
    <glyph glyph-name="afii10048" unicode="&#x42e;" horiz-adv-x="1130" 
d="M518 344q0 -125 53 -197.5t167 -72.5t168.5 73t54.5 197v746q0 124 -54.5 197t-168.5 73t-167 -72.5t-53 -197.5v-746zM82 0v1434h94v-674h248v323q0 166 78 264.5t236 98.5t237.5 -99t79.5 -264v-733q0 -165 -79.5 -263.5t-237.5 -98.5t-236 98.5t-78 263.5v324h-248
v-674h-94z" />
    <glyph glyph-name="afii10049" unicode="&#x42f;" horiz-adv-x="790" 
d="M197 967q0 -137 65 -188.5t201 -51.5h151v621h-202q-113 0 -164 -63t-51 -183v-135zM102 172v223q0 247 207 293q-207 48 -207 297v125q0 324 308 324h299v-1434h-95v641h-149q-132 0 -200 -54.5t-68 -189.5v-225q0 -119 -31 -172h-98q34 52 34 172z" />
    <glyph glyph-name="afii10065" unicode="&#x430;" horiz-adv-x="892" 
d="M233 399h418l-211 928zM61 0l314 1436h137l319 -1436h-94l-71 317h-447l-72 -317h-86z" />
    <glyph glyph-name="afii10066" unicode="&#x431;" horiz-adv-x="792" 
d="M176 86h221q117 0 170.5 62.5t53.5 187.5v174q0 127 -57 176t-183 49h-205v-649zM82 0v1434h580v-86h-486v-525h205q169 0 251.5 -75.5t82.5 -243.5v-162q0 -342 -318 -342h-315z" />
    <glyph glyph-name="afii10067" unicode="&#x432;" horiz-adv-x="774" 
d="M176 801h160q132 0 189 48t57 179v92q0 118 -45 173t-156 55h-205v-547zM176 86h213q115 0 167 62t52 186v129q0 136 -61.5 194t-192.5 58h-178v-629zM82 0v1434h301q157 0 225 -76t68 -230v-81q0 -123 -42.5 -192t-146.5 -91q215 -43 215 -307v-125q0 -332 -313 -332
h-307z" />
    <glyph glyph-name="afii10068" unicode="&#x433;" horiz-adv-x="708" 
d="M82 0v1434h551v-86h-457v-1348h-94z" />
    <glyph glyph-name="afii10069" unicode="&#x434;" horiz-adv-x="1001" 
d="M719 86v1262h-340l-53 -1033q-5 -86 -18.5 -138t-49.5 -91h461zM63 86h99q39 40 53 94t18 135l58 1119h524v-1348h119v-285h-94v199h-684v-199h-93v285z" />
    <glyph glyph-name="afii10070" unicode="&#x435;" horiz-adv-x="718" 
d="M82 0v1434h565v-86h-471v-578h391v-86h-391v-598h471v-86h-565z" />
    <glyph glyph-name="afii10072" unicode="&#x436;" horiz-adv-x="1275" 
d="M590 1434h94v-738l420 738h98l-356 -627l371 -807h-97l-340 717l-96 -164v-553h-94v555l-94 162l-340 -717h-99l375 805l-358 629h96l420 -738v738z" />
    <glyph glyph-name="afii10073" unicode="&#x437;" horiz-adv-x="774" 
d="M78 350v119h90v-125q0 -124 52 -197t165 -73q217 0 217 278v111q0 110 -59 176t-162 66h-80v86h86q94 0 154.5 68t60.5 169v53q0 279 -217 279q-113 0 -166 -72.5t-53 -197.5v-78h-86v73q0 165 75 263t232 98t233 -98.5t76 -264.5v-36q0 -107 -50.5 -186t-143.5 -109
q95 -27 144.5 -105t49.5 -186v-111q0 -166 -76 -264t-233 -98t-233 98t-76 264z" />
    <glyph glyph-name="afii10074" unicode="&#x438;" 
d="M82 0v1434h86v-1227l166 473l274 754h113v-1434h-86v1268l-217 -602l-234 -666h-102z" />
    <glyph glyph-name="afii10075" unicode="&#x439;" horiz-adv-x="802" 
d="M412 1585q60 0 100 28.5t43 86.5h63q-1 -82 -58.5 -128t-147.5 -46t-147 46.5t-58 127.5h65q1 -58 40.5 -86.5t99.5 -28.5zM82 0v1434h86v-1227l180 510l260 717h113v-1434h-86v1268l-451 -1268h-102z" />
    <glyph glyph-name="afii10076" unicode="&#x43a;" horiz-adv-x="827" 
d="M82 0v1434h94v-758l467 758h98l-409 -668l436 -766h-98l-396 674l-98 -156v-518h-94z" />
    <glyph glyph-name="afii10077" unicode="&#x43b;" horiz-adv-x="897" 
d="M59 -2v86q80 0 117.5 38.5t47.5 96t12 129.5l43 1086h534v-1434h-96v1348h-350l-37 -998q-10 -211 -72 -280.5t-180 -71.5h-19z" />
    <glyph glyph-name="afii10078" unicode="&#x43c;" horiz-adv-x="1034" 
d="M82 0v1434h135l301 -1268l299 1268h135v-1434h-90v1274l-299 -1272h-94l-303 1268v-1270h-84z" />
    <glyph glyph-name="afii10079" unicode="&#x43d;" 
d="M82 0v1434h94v-674h447v674h96v-1434h-96v674h-447v-674h-94z" />
    <glyph glyph-name="afii10080" unicode="&#x43e;" horiz-adv-x="780" 
d="M170 344q0 -125 53 -197.5t167 -72.5t168 73t54 197v746q0 124 -54 197t-168 73t-167 -72.5t-53 -197.5v-746zM76 350v733q0 165 78 264t236 99t237.5 -99t79.5 -264v-733q0 -165 -79.5 -263.5t-237.5 -98.5t-236 98.5t-78 263.5z" />
    <glyph glyph-name="afii10081" unicode="&#x43f;" 
d="M82 0v1434h637v-1434h-96v1348h-447v-1348h-94z" />
    <glyph glyph-name="afii10082" unicode="&#x440;" horiz-adv-x="745" 
d="M176 676h178q125 0 181.5 59t56.5 189v168q0 124 -49 190t-164 66h-203v-672zM379 1434q307 0 307 -349v-155q0 -171 -81.5 -255.5t-250.5 -84.5h-178v-590h-94v1434h297z" />
    <glyph glyph-name="afii10083" unicode="&#x441;" horiz-adv-x="765" 
d="M387 76q217 0 217 268v170h90v-164q0 -165 -76 -263.5t-233 -98.5t-233 98.5t-76 263.5v733q0 165 76 264t233 99t233 -99t76 -264v-118h-90v125q0 124 -52 197t-165 73t-165 -73t-52 -197v-746q0 -268 217 -268z" />
    <glyph glyph-name="afii10084" unicode="&#x442;" horiz-adv-x="794" 
d="M57 1348v86h680v-86h-293v-1348h-94v1348h-293z" />
    <glyph glyph-name="afii10085" unicode="&#x443;" horiz-adv-x="872" 
d="M57 1434h97l292 -889l115 385l156 504h98l-371 -1168q-36 -135 -100 -203.5t-215 -62.5v84q94 -1 139.5 38.5t73.5 129.5l59 174z" />
    <glyph glyph-name="afii10086" unicode="&#x444;" horiz-adv-x="1138" 
d="M614 240h117q124 0 181 68.5t57 201.5v403q0 134 -56.5 202.5t-181.5 68.5h-117v-944zM168 510q0 -134 56.5 -202t181.5 -68h116v944h-116q-125 0 -181.5 -68.5t-56.5 -202.5v-403zM76 516v391q0 176 79 268.5t251 92.5h116v166h92v-166h117q330 0 330 -361v-391
q0 -360 -330 -360h-117v-156h-92v156h-116q-172 0 -251 92t-79 268z" />
    <glyph glyph-name="afii10087" unicode="&#x445;" horiz-adv-x="901" 
d="M63 0l324 743l-301 691h98l271 -617l272 617h90l-301 -691l322 -743h-101l-291 668l-290 -668h-93z" />
    <glyph glyph-name="afii10088" unicode="&#x446;" horiz-adv-x="931" 
d="M109 0v1434h92v-1348h446v1348h96v-1348h119v-279h-92v193h-661z" />
    <glyph glyph-name="afii10089" unicode="&#x447;" horiz-adv-x="792" 
d="M76 897v537h94v-531q0 -118 55.5 -194t165.5 -76q177 0 225 186v615h95v-1434h-95v688q-81 -141 -251 -141q-98 0 -193.5 69t-95.5 281z" />
    <glyph glyph-name="afii10090" unicode="&#x448;" horiz-adv-x="1155" 
d="M82 0v1434h94v-1348h354v1348h95v-1348h354v1348h94v-1434h-991z" />
    <glyph glyph-name="afii10091" unicode="&#x449;" horiz-adv-x="1259" 
d="M82 0v1434h94v-1348h352v1348h95v-1348h356l-2 1348h94v-1348h121v-279h-92v193h-1018z" />
    <glyph glyph-name="afii10092" unicode="&#x44a;" horiz-adv-x="890" 
d="M309 86h203q115 0 164 66t49 190v168q0 130 -57 189t-181 59h-178v-672zM20 1348v86h289v-590h178q169 0 250.5 -84.5t81.5 -255.5v-156q0 -348 -307 -348h-297v1348h-195z" />
    <glyph glyph-name="afii10093" unicode="&#x44b;" horiz-adv-x="997" 
d="M821 0v1434h94v-1434h-94zM176 86h201q115 0 165 66t50 190v168q0 130 -57.5 189t-182.5 59h-176v-672zM82 0v1434h94v-590h176q171 0 252.5 -84.5t81.5 -255.5v-156q0 -348 -309 -348h-295z" />
    <glyph glyph-name="afii10094" unicode="&#x44c;" horiz-adv-x="757" 
d="M176 86h201q115 0 165 66t50 190v168q0 130 -57.5 189t-182.5 59h-176v-672zM82 0v1434h94v-590h176q171 0 252.5 -84.5t81.5 -255.5v-156q0 -348 -309 -348h-295z" />
    <glyph glyph-name="afii10095" unicode="&#x44d;" horiz-adv-x="765" 
d="M377 76q219 0 219 268v354h-293v86h293v306q0 124 -53 197t-165 73t-164 -73t-52 -197v-97h-88v90q0 165 75 264t231 99t233 -99.5t77 -263.5v-733q0 -164 -77 -263t-233 -99t-232 98.5t-76 263.5v139h90v-145q0 -123 52 -195.5t163 -72.5z" />
    <glyph glyph-name="afii10096" unicode="&#x44e;" horiz-adv-x="1130" 
d="M518 344q0 -125 53 -197.5t167 -72.5t168.5 73t54.5 197v746q0 124 -54.5 197t-168.5 73t-167 -72.5t-53 -197.5v-746zM82 0v1434h94v-674h248v323q0 166 78 264.5t236 98.5t237.5 -99t79.5 -264v-733q0 -165 -79.5 -263.5t-237.5 -98.5t-236 98.5t-78 263.5v324h-248
v-674h-94z" />
    <glyph glyph-name="afii10097" unicode="&#x44f;" horiz-adv-x="790" 
d="M197 967q0 -137 65 -188.5t201 -51.5h151v621h-202q-113 0 -164 -63t-51 -183v-135zM102 172v223q0 247 207 293q-207 48 -207 297v125q0 324 308 324h299v-1434h-95v641h-149q-132 0 -200 -54.5t-68 -189.5v-225q0 -119 -31 -172h-98q34 52 34 172z" />
    <glyph glyph-name="afii10071" unicode="&#x451;" horiz-adv-x="718" 
d="M422 1526v174h84v-174h-84zM223 1526v174h84v-174h-84zM82 0v1434h565v-86h-471v-578h391v-86h-391v-598h471v-86h-565z" />
    <glyph glyph-name="uni2000" unicode="&#x2000;" horiz-adv-x="901" 
 />
    <glyph glyph-name="uni2001" unicode="&#x2001;" horiz-adv-x="1802" 
 />
    <glyph glyph-name="uni2002" unicode="&#x2002;" horiz-adv-x="901" 
 />
    <glyph glyph-name="uni2003" unicode="&#x2003;" horiz-adv-x="1802" 
 />
    <glyph glyph-name="uni2004" unicode="&#x2004;" horiz-adv-x="600" 
 />
    <glyph glyph-name="uni2005" unicode="&#x2005;" horiz-adv-x="450" 
 />
    <glyph glyph-name="uni2006" unicode="&#x2006;" horiz-adv-x="300" 
 />
    <glyph glyph-name="uni2007" unicode="&#x2007;" horiz-adv-x="300" 
 />
    <glyph glyph-name="uni2008" unicode="&#x2008;" horiz-adv-x="225" 
 />
    <glyph glyph-name="uni2009" unicode="&#x2009;" horiz-adv-x="360" 
 />
    <glyph glyph-name="uni200A" unicode="&#x200a;" horiz-adv-x="100" 
 />
    <glyph glyph-name="uni2010" unicode="&#x2010;" horiz-adv-x="532" 
d="M78 674v86h377v-86h-377z" />
    <glyph glyph-name="uni2011" unicode="&#x2011;" horiz-adv-x="532" 
d="M78 674v86h377v-86h-377z" />
    <glyph glyph-name="figuredash" unicode="&#x2012;" horiz-adv-x="532" 
d="M78 674v86h377v-86h-377z" />
    <glyph glyph-name="endash" unicode="&#x2013;" horiz-adv-x="854" 
d="M53 678v78h750v-78h-750z" />
    <glyph glyph-name="emdash" unicode="&#x2014;" horiz-adv-x="1372" 
d="M53 678v78h1268v-78h-1268z" />
    <glyph glyph-name="quoteleft" unicode="&#x2018;" horiz-adv-x="274" 
d="M82 1098v172l59 164h41l-41 -156h33v-180h-92z" />
    <glyph glyph-name="quoteright" unicode="&#x2019;" horiz-adv-x="274" 
d="M102 1253v181h91v-172l-60 -164h-41l41 155h-31z" />
    <glyph glyph-name="quotesinglbase" unicode="&#x201a;" horiz-adv-x="274" 
d="M102 0v180h91v-172l-60 -164h-41l41 156h-31z" />
    <glyph glyph-name="quotedblleft" unicode="&#x201c;" horiz-adv-x="434" 
d="M242 1098v172l59 164h43l-43 -156h33v-180h-92zM82 1098v172l59 164h41l-41 -156h33v-180h-92z" />
    <glyph glyph-name="quotedblright" unicode="&#x201d;" horiz-adv-x="434" 
d="M252 1253v181h92v-172l-59 -164h-41l41 155h-33zM92 1253v181h92v-172l-59 -164h-43l43 155h-33z" />
    <glyph glyph-name="quotedblbase" unicode="&#x201e;" horiz-adv-x="444" 
d="M272 0v180h90v-172l-57 -164h-43l43 156h-33zM102 0v180h91v-172l-60 -164h-41l41 156h-31z" />
    <glyph glyph-name="bullet" unicode="&#x2022;" horiz-adv-x="538" 
d="M123 717q0 61 42.5 104t103.5 43t104 -43t43 -104t-43 -104.5t-104 -43.5t-103.5 43.5t-42.5 104.5z" />
    <glyph glyph-name="ellipsis" unicode="&#x2026;" horiz-adv-x="579" 
d="M408 0v180h90v-180h-90zM244 0v180h90v-180h-90zM82 0v180h92v-180h-92z" />
    <glyph glyph-name="uni202F" unicode="&#x202f;" horiz-adv-x="360" 
 />
    <glyph glyph-name="guilsinglleft" unicode="&#x2039;" horiz-adv-x="350" 
d="M63 717l134 508h90l-131 -508l131 -518h-90z" />
    <glyph glyph-name="guilsinglright" unicode="&#x203a;" horiz-adv-x="350" 
d="M63 201l132 518l-132 508h91l133 -508l-133 -518h-91z" />
    <glyph glyph-name="uni205F" unicode="&#x205f;" horiz-adv-x="450" 
 />
    <glyph glyph-name="Euro" unicode="&#x20ac;" horiz-adv-x="813" 
d="M440 76q211 0 211 268v94h90v-88q0 -164 -74 -263t-229 -99t-229 99t-74 263v234h-82v53h82v168h-82v55h82v223q0 164 74 263.5t229 99.5t229 -99.5t74 -263.5v-77h-90v84q0 123 -50 196.5t-160 73.5t-161 -73.5t-51 -196.5v-230h396v-55h-396v-168h396v-53h-396v-240
q0 -268 211 -268z" />
    <glyph glyph-name="trademark" unicode="&#x2122;" horiz-adv-x="1187" 
d="M557 705v729h90l191 -623l188 623h90v-729h-61v628l-187 -620h-63l-189 620v-628h-59zM29 1374v60h432v-60h-182v-669h-66v669h-184z" />
    <glyph glyph-name="uni25FC" unicode="&#x25fc;" horiz-adv-x="1433" 
d="M0 0v1434h1434v-1434h-1434z" />
    </font>
</defs>
</svg>
